<?xml version="1.0" encoding="utf-8"?>
<!-- Generator: Adobe Illustrator 16.0.0, SVG Export Plug-In . SVG Version: 6.00 Build 0)  -->
<!DOCTYPE svg PUBLIC "-//W3C//DTD SVG 1.1//EN" "http://www.w3.org/Graphics/SVG/1.1/DTD/svg11.dtd">
<svg version="1.1" id="Layer_1" xmlns="http://www.w3.org/2000/svg" xmlns:xlink="http://www.w3.org/1999/xlink" x="0px" y="0px"
	 width="628px" height="128.036px" viewBox="0 0 628 128.036" enable-background="new 0 0 628 128.036" xml:space="preserve">
<g>
	<path fill="#707070" d="M-553.203-332.476c0.391,0.234,0.855,0.436,1.393,0.601c0.537,0.167,1.089,0.25,1.657,0.25
		c0.646,0,1.192-0.163,1.642-0.487c0.45-0.324,0.675-0.85,0.675-1.578c0-0.609-0.138-1.11-0.411-1.503
		c-0.273-0.394-0.621-0.747-1.04-1.063c-0.421-0.314-0.876-0.604-1.364-0.866c-0.488-0.264-0.943-0.579-1.363-0.949
		c-0.421-0.37-0.768-0.809-1.041-1.314c-0.273-0.508-0.41-1.149-0.41-1.93c0-1.246,0.337-2.186,1.012-2.819
		c0.674-0.633,1.627-0.949,2.857-0.949c0.803,0,1.496,0.073,2.084,0.22c0.586,0.146,1.094,0.348,1.523,0.602l-0.557,1.759
		c-0.372-0.195-0.802-0.356-1.29-0.484c-0.489-0.126-0.987-0.19-1.495-0.19c-0.705,0-1.218,0.147-1.54,0.44
		c-0.323,0.293-0.483,0.753-0.483,1.378c0,0.489,0.136,0.904,0.41,1.246c0.273,0.343,0.62,0.655,1.041,0.938
		c0.42,0.283,0.875,0.572,1.363,0.865c0.488,0.293,0.943,0.641,1.363,1.04c0.42,0.401,0.767,0.88,1.041,1.438
		c0.273,0.557,0.41,1.256,0.41,2.097c0,0.548-0.088,1.065-0.264,1.554c-0.176,0.489-0.445,0.914-0.807,1.275
		c-0.362,0.361-0.811,0.649-1.348,0.865c-0.539,0.215-1.17,0.322-1.893,0.322c-0.859,0-1.602-0.083-2.228-0.249
		s-1.153-0.386-1.584-0.659L-553.203-332.476z"/>
	<path fill="#707070" d="M-543.703-337.401c0-2.64,0.455-4.579,1.363-5.821c0.91-1.24,2.204-1.861,3.885-1.861
		c1.799,0,3.123,0.635,3.975,1.905c0.85,1.271,1.274,3.196,1.274,5.777c0,2.658-0.46,4.603-1.378,5.834
		c-0.919,1.232-2.209,1.848-3.871,1.848c-1.799,0-3.122-0.635-3.973-1.905C-543.277-332.896-543.703-334.821-543.703-337.401z
		 M-541.504-337.401c0,0.86,0.055,1.642,0.161,2.346c0.106,0.703,0.283,1.31,0.527,1.818c0.244,0.508,0.562,0.903,0.953,1.187
		c0.392,0.284,0.86,0.426,1.407,0.426c1.018,0,1.779-0.455,2.287-1.364c0.508-0.908,0.764-2.38,0.764-4.412
		c0-0.841-0.055-1.617-0.162-2.332c-0.107-0.713-0.283-1.324-0.527-1.832c-0.246-0.509-0.563-0.904-0.953-1.188
		c-0.39-0.284-0.86-0.426-1.408-0.426c-0.996,0-1.754,0.46-2.271,1.379C-541.245-340.881-541.504-339.415-541.504-337.401z"/>
	<path fill="#707070" d="M-530.391-350.597h2.111v6.979h0.088c0.801-0.978,1.865-1.466,3.195-1.466c1.506,0,2.635,0.597,3.387,1.789
		c0.752,1.191,1.129,3.078,1.129,5.659c0,2.639-0.504,4.604-1.51,5.894c-1.007,1.29-2.43,1.936-4.267,1.936
		c-0.899,0-1.72-0.103-2.463-0.308c-0.743-0.206-1.3-0.444-1.671-0.719L-530.391-350.597L-530.391-350.597z M-528.279-332.212
		c0.272,0.156,0.61,0.278,1.012,0.366c0.4,0.089,0.825,0.132,1.274,0.132c1.017,0,1.823-0.483,2.419-1.451
		c0.597-0.967,0.896-2.458,0.896-4.471c0-0.841-0.054-1.599-0.16-2.273c-0.108-0.674-0.275-1.256-0.5-1.744
		c-0.225-0.488-0.518-0.865-0.879-1.129c-0.362-0.265-0.797-0.396-1.305-0.396c-0.703,0-1.286,0.211-1.744,0.631
		c-0.461,0.421-0.798,0.992-1.012,1.715V-332.212z"/>
	<path fill="#707070" d="M-510.16-330.071v-8.943c0-1.466-0.171-2.526-0.512-3.182c-0.344-0.654-0.955-0.982-1.833-0.982
		c-0.782,0-1.427,0.235-1.937,0.704c-0.508,0.47-0.879,1.046-1.113,1.73v10.673h-2.111v-14.661h1.524l0.382,1.554h0.088
		c0.371-0.527,0.875-0.978,1.51-1.349c0.635-0.371,1.393-0.557,2.271-0.557c0.626,0,1.178,0.088,1.658,0.264
		c0.479,0.176,0.879,0.475,1.201,0.895c0.322,0.42,0.566,0.982,0.733,1.688c0.167,0.703,0.249,1.593,0.249,2.668v9.5
		L-510.16-330.071L-510.16-330.071z"/>
	<path fill="#707070" d="M-504.941-343.853c0.568-0.353,1.258-0.626,2.068-0.821c0.81-0.195,1.667-0.293,2.565-0.293
		c0.821,0,1.481,0.122,1.979,0.366c0.498,0.245,0.89,0.577,1.173,0.997c0.283,0.421,0.469,0.899,0.557,1.437
		c0.089,0.538,0.132,1.1,0.132,1.687c0,1.173-0.024,2.316-0.075,3.431c-0.05,1.114-0.075,2.169-0.075,3.166
		c0,0.744,0.025,1.434,0.075,2.068c0.051,0.635,0.144,1.236,0.28,1.803h-1.652l-0.514-1.729h-0.115
		c-0.291,0.509-0.718,0.949-1.281,1.32c-0.563,0.371-1.318,0.557-2.27,0.557c-1.048,0-1.906-0.366-2.576-1.1
		c-0.669-0.733-1.004-1.744-1.004-3.034c0-0.841,0.141-1.544,0.422-2.112c0.281-0.566,0.679-1.025,1.193-1.378
		c0.514-0.352,1.123-0.601,1.832-0.747c0.707-0.147,1.497-0.221,2.369-0.221c0.194,0,0.389,0,0.582,0
		c0.193,0,0.397,0.011,0.611,0.029c0.058-0.604,0.086-1.143,0.086-1.612c0-1.114-0.164-1.896-0.493-2.346
		c-0.329-0.449-0.931-0.674-1.802-0.674c-0.543,0-1.133,0.083-1.771,0.249c-0.641,0.166-1.172,0.377-1.599,0.63L-504.941-343.853z
		 M-498.636-336.757c-0.194-0.019-0.387-0.034-0.579-0.044c-0.194-0.01-0.387-0.015-0.58-0.015c-0.463,0-0.917,0.04-1.361,0.117
		c-0.445,0.078-0.842,0.216-1.188,0.411c-0.349,0.195-0.623,0.459-0.826,0.791c-0.203,0.333-0.305,0.753-0.305,1.261
		c0,0.782,0.188,1.389,0.565,1.818c0.376,0.43,0.863,0.645,1.464,0.645c0.811,0,1.438-0.195,1.882-0.586
		c0.444-0.391,0.753-0.821,0.928-1.29V-336.757L-498.636-336.757z"/>
	<path fill="#707070" d="M-485.911-335.584c0-0.782,0.118-1.52,0.353-2.214c0.234-0.693,0.542-1.339,0.924-1.936
		c0.381-0.596,0.815-1.138,1.304-1.627c0.488-0.488,0.987-0.928,1.496-1.319c-0.392-0.704-0.733-1.427-1.026-2.17
		c-0.293-0.742-0.439-1.524-0.439-2.346c0-0.469,0.063-0.928,0.189-1.378c0.128-0.449,0.338-0.852,0.631-1.202
		c0.293-0.353,0.664-0.636,1.114-0.851c0.45-0.215,0.997-0.322,1.642-0.322c0.665,0,1.227,0.098,1.687,0.293
		c0.459,0.195,0.825,0.45,1.1,0.762c0.273,0.313,0.474,0.67,0.601,1.071c0.127,0.399,0.191,0.814,0.191,1.246
		c0,0.84-0.265,1.7-0.792,2.58s-1.329,1.74-2.405,2.58c0.254,0.548,0.543,1.119,0.865,1.715c0.323,0.597,0.665,1.193,1.027,1.789
		c0.361,0.597,0.732,1.184,1.113,1.76c0.382,0.576,0.758,1.109,1.129,1.598c0.353-0.488,0.685-1.144,0.998-1.965
		c0.313-0.82,0.566-1.612,0.762-2.375l1.7,0.675c-0.098,0.333-0.234,0.732-0.41,1.202c-0.176,0.469-0.366,0.943-0.571,1.422
		s-0.421,0.938-0.646,1.378c-0.226,0.44-0.436,0.807-0.63,1.1c0.645,0.763,1.188,1.354,1.627,1.774c0.44,0.42,0.884,0.787,1.334,1.1
		l-1.319,1.524c-0.88-0.508-1.837-1.417-2.874-2.727c-0.273,0.352-0.581,0.688-0.924,1.012c-0.342,0.322-0.723,0.611-1.143,0.864
		c-0.42,0.255-0.891,0.46-1.408,0.616s-1.08,0.234-1.686,0.234c-0.762,0-1.48-0.122-2.155-0.366c-0.675-0.245-1.261-0.611-1.759-1.1
		c-0.499-0.488-0.891-1.1-1.174-1.833C-485.77-333.751-485.911-334.606-485.911-335.584z M-476.469-333.884
		c-0.45-0.565-0.891-1.172-1.32-1.816c-0.429-0.646-0.84-1.29-1.231-1.936c-0.392-0.646-0.747-1.271-1.07-1.878
		c-0.322-0.604-0.591-1.162-0.806-1.671c-0.411,0.392-0.793,0.782-1.145,1.173c-0.352,0.392-0.659,0.807-0.923,1.247
		c-0.265,0.438-0.47,0.918-0.616,1.436c-0.146,0.519-0.22,1.091-0.22,1.716c0,0.646,0.098,1.217,0.294,1.716
		c0.194,0.498,0.464,0.914,0.806,1.246c0.341,0.332,0.733,0.586,1.173,0.762c0.44,0.176,0.904,0.265,1.393,0.265
		c0.371,0,0.742-0.068,1.114-0.206c0.372-0.137,0.719-0.312,1.042-0.527c0.322-0.215,0.609-0.454,0.864-0.718
		C-476.861-333.341-476.646-333.609-476.469-333.884z M-481.189-347.215c0,0.591,0.092,1.171,0.277,1.74
		c0.185,0.569,0.426,1.15,0.719,1.739c0.801-0.688,1.354-1.316,1.656-1.887c0.302-0.571,0.455-1.081,0.455-1.533
		c0-0.55-0.113-1.026-0.338-1.43c-0.225-0.402-0.63-0.604-1.217-0.604c-0.547,0-0.943,0.187-1.188,0.561
		C-481.068-348.256-481.189-347.784-481.189-347.215z"/>
	<path fill="#707070" d="M-461.633-332.476c0.391,0.234,0.854,0.436,1.393,0.601c0.537,0.167,1.09,0.25,1.656,0.25
		c0.646,0,1.192-0.163,1.642-0.487c0.45-0.324,0.675-0.85,0.675-1.578c0-0.609-0.137-1.11-0.41-1.503
		c-0.274-0.394-0.62-0.747-1.041-1.063c-0.421-0.314-0.875-0.604-1.363-0.866c-0.489-0.264-0.943-0.579-1.364-0.949
		c-0.42-0.37-0.767-0.809-1.04-1.314c-0.274-0.508-0.411-1.149-0.411-1.93c0-1.246,0.338-2.186,1.013-2.819
		c0.674-0.633,1.627-0.949,2.858-0.949c0.801,0,1.495,0.073,2.081,0.22c0.587,0.146,1.096,0.348,1.525,0.602l-0.557,1.759
		c-0.372-0.195-0.802-0.356-1.291-0.484c-0.488-0.126-0.987-0.19-1.495-0.19c-0.703,0-1.217,0.147-1.539,0.44
		c-0.322,0.293-0.484,0.753-0.484,1.378c0,0.489,0.137,0.904,0.411,1.246c0.273,0.343,0.62,0.655,1.041,0.938
		c0.42,0.283,0.874,0.572,1.363,0.865c0.488,0.293,0.942,0.641,1.363,1.04c0.42,0.401,0.768,0.88,1.041,1.438
		c0.273,0.557,0.41,1.256,0.41,2.097c0,0.548-0.088,1.065-0.264,1.554c-0.176,0.489-0.445,0.914-0.806,1.275
		c-0.363,0.361-0.813,0.649-1.35,0.865c-0.538,0.215-1.168,0.322-1.891,0.322c-0.861,0-1.604-0.083-2.229-0.249
		c-0.626-0.166-1.154-0.386-1.584-0.659L-461.633-332.476z"/>
	<path fill="#707070" d="M-451.518-349.189c0-0.469,0.132-0.85,0.396-1.144c0.264-0.293,0.61-0.439,1.041-0.439
		c0.43,0,0.786,0.143,1.07,0.425c0.283,0.284,0.425,0.67,0.425,1.158c0,0.47-0.142,0.836-0.425,1.101
		c-0.284,0.264-0.641,0.396-1.07,0.396c-0.431,0-0.777-0.137-1.041-0.411C-451.386-348.378-451.518-348.739-451.518-349.189z
		 M-451.136-344.732h2.11v14.661h-2.11V-344.732z"/>
	<path fill="#707070" d="M-435.889-329.397c0,1.896-0.421,3.294-1.261,4.193c-0.841,0.898-2.063,1.349-3.665,1.349
		c-0.979,0-1.779-0.083-2.404-0.249c-0.626-0.166-1.135-0.356-1.524-0.571l0.615-1.818c0.391,0.176,0.82,0.342,1.29,0.499
		c0.47,0.155,1.045,0.234,1.73,0.234c1.191,0,2.008-0.333,2.448-0.997c0.439-0.665,0.659-1.779,0.659-3.343v-1.085h-0.088
		c-0.313,0.449-0.714,0.802-1.202,1.056c-0.488,0.254-1.114,0.381-1.877,0.381c-1.583,0-2.746-0.61-3.489-1.832
		c-0.743-1.222-1.113-3.143-1.113-5.762c0-2.521,0.483-4.428,1.451-5.718c0.968-1.29,2.399-1.936,4.295-1.936
		c0.919,0,1.711,0.088,2.375,0.264c0.665,0.176,1.251,0.382,1.76,0.616V-329.397z M-438-342.621c-0.587-0.313-1.339-0.47-2.258-0.47
		c-0.997,0-1.799,0.455-2.404,1.363c-0.606,0.91-0.909,2.361-0.909,4.355c0,0.82,0.049,1.578,0.147,2.272
		c0.097,0.693,0.264,1.3,0.498,1.817c0.235,0.519,0.532,0.919,0.895,1.202c0.361,0.284,0.806,0.426,1.334,0.426
		c0.742,0,1.329-0.195,1.759-0.587c0.431-0.391,0.743-0.977,0.938-1.759V-342.621z"/>
	<path fill="#707070" d="M-430.553-344.732v8.973c0,1.485,0.151,2.546,0.454,3.182c0.303,0.635,0.855,0.953,1.657,0.953
		c0.41,0,0.776-0.083,1.1-0.25c0.322-0.165,0.61-0.386,0.864-0.66c0.255-0.273,0.479-0.586,0.675-0.938
		c0.195-0.353,0.353-0.713,0.469-1.085v-10.175h2.111v10.497c0,0.704,0.024,1.433,0.073,2.185c0.049,0.753,0.122,1.413,0.22,1.979
		h-1.495l-0.527-2.053h-0.088c-0.333,0.645-0.812,1.207-1.438,1.687c-0.626,0.479-1.407,0.718-2.346,0.718
		c-0.626,0-1.173-0.078-1.642-0.234c-0.47-0.156-0.87-0.439-1.202-0.851c-0.333-0.411-0.582-0.972-0.748-1.686
		c-0.166-0.714-0.249-1.628-0.249-2.742v-9.5H-430.553z"/>
	<path fill="#707070" d="M-419.732-344.732h1.495l0.381,1.554h0.088c0.273-0.566,0.631-1.011,1.07-1.334
		c0.44-0.322,0.972-0.483,1.598-0.483c0.449,0,0.958,0.088,1.525,0.264l-0.41,2.141c-0.509-0.176-0.959-0.265-1.349-0.265
		c-0.627,0-1.135,0.182-1.525,0.543c-0.392,0.362-0.646,0.847-0.763,1.451v10.791h-2.11V-344.732L-419.732-344.732z"/>
	<path fill="#707070" d="M-404.193-330.071v-8.943c0-1.466-0.171-2.526-0.513-3.182c-0.343-0.654-0.953-0.982-1.833-0.982
		c-0.782,0-1.427,0.235-1.936,0.704c-0.508,0.47-0.879,1.046-1.114,1.73v10.673h-2.11v-14.661h1.524l0.381,1.554h0.089
		c0.37-0.527,0.874-0.978,1.51-1.349c0.635-0.371,1.393-0.557,2.271-0.557c0.626,0,1.178,0.088,1.657,0.264
		c0.479,0.176,0.88,0.475,1.202,0.895c0.322,0.42,0.566,0.982,0.733,1.688c0.165,0.703,0.249,1.593,0.249,2.668v9.5
		L-404.193-330.071L-404.193-330.071z"/>
	<path fill="#707070" d="M-399.473-337.401c0-2.64,0.455-4.579,1.363-5.821c0.909-1.24,2.204-1.861,3.886-1.861
		c1.798,0,3.122,0.635,3.973,1.905c0.851,1.271,1.275,3.196,1.275,5.777c0,2.658-0.46,4.603-1.378,5.834
		c-0.919,1.232-2.209,1.848-3.87,1.848c-1.799,0-3.123-0.635-3.974-1.905C-399.049-332.894-399.473-334.821-399.473-337.401z
		 M-397.273-337.401c0,0.86,0.054,1.642,0.161,2.346c0.107,0.703,0.283,1.31,0.528,1.818c0.244,0.508,0.562,0.903,0.952,1.187
		c0.392,0.284,0.86,0.426,1.408,0.426c1.017,0,1.778-0.455,2.287-1.364c0.508-0.908,0.762-2.38,0.762-4.412
		c0-0.841-0.054-1.617-0.161-2.332c-0.107-0.713-0.284-1.324-0.528-1.832c-0.244-0.509-0.562-0.904-0.952-1.188
		c-0.39-0.284-0.86-0.426-1.407-0.426c-0.997,0-1.756,0.46-2.273,1.379C-397.013-340.88-397.273-339.415-397.273-337.401z"/>
	<path fill="#707070" d="M-386.395-332.476c0.39,0.234,0.854,0.436,1.393,0.601c0.537,0.167,1.089,0.25,1.656,0.25
		c0.645,0,1.192-0.163,1.642-0.487c0.45-0.324,0.675-0.85,0.675-1.578c0-0.609-0.137-1.11-0.41-1.503
		c-0.274-0.394-0.621-0.747-1.041-1.063c-0.421-0.314-0.875-0.604-1.363-0.866c-0.489-0.264-0.943-0.579-1.364-0.949
		c-0.42-0.37-0.767-0.809-1.041-1.314c-0.273-0.508-0.41-1.149-0.41-1.93c0-1.246,0.338-2.186,1.012-2.819
		c0.675-0.633,1.627-0.949,2.859-0.949c0.801,0,1.495,0.073,2.081,0.22c0.587,0.146,1.095,0.348,1.525,0.602l-0.557,1.759
		c-0.373-0.195-0.802-0.356-1.291-0.484c-0.488-0.126-0.987-0.19-1.495-0.19c-0.704,0-1.217,0.147-1.54,0.44
		c-0.322,0.293-0.483,0.753-0.483,1.378c0,0.489,0.137,0.904,0.411,1.246c0.273,0.343,0.62,0.655,1.04,0.938
		c0.421,0.283,0.875,0.572,1.364,0.865c0.488,0.293,0.942,0.641,1.363,1.04c0.419,0.401,0.767,0.88,1.04,1.438
		c0.273,0.557,0.411,1.256,0.411,2.097c0,0.548-0.088,1.065-0.264,1.554c-0.177,0.489-0.445,0.914-0.807,1.275
		c-0.362,0.361-0.812,0.649-1.349,0.865c-0.538,0.215-1.169,0.322-1.892,0.322c-0.86,0-1.603-0.083-2.228-0.249
		c-0.627-0.166-1.154-0.386-1.584-0.659L-386.395-332.476z"/>
	<path fill="#707070" d="M-368.744-330.071v-8.943c0-1.466-0.171-2.526-0.513-3.182c-0.342-0.654-0.953-0.982-1.833-0.982
		c-0.782,0-1.427,0.235-1.935,0.704c-0.509,0.47-0.88,1.046-1.115,1.73v10.673h-2.11v-14.661h1.524l0.382,1.554h0.088
		c0.371-0.527,0.874-0.978,1.51-1.349c0.635-0.371,1.393-0.557,2.272-0.557c0.625,0,1.178,0.088,1.656,0.264
		c0.478,0.176,0.88,0.475,1.202,0.895c0.323,0.42,0.567,0.982,0.733,1.688c0.166,0.703,0.249,1.593,0.249,2.668v9.5
		L-368.744-330.071L-368.744-330.071z"/>
	<path fill="#707070" d="M-363.524-343.853c0.566-0.353,1.256-0.626,2.067-0.821c0.811-0.195,1.666-0.293,2.565-0.293
		c0.821,0,1.48,0.122,1.979,0.366c0.498,0.245,0.889,0.577,1.172,0.997c0.283,0.421,0.47,0.899,0.558,1.437
		c0.088,0.538,0.132,1.1,0.132,1.687c0,1.173-0.025,2.316-0.076,3.431c-0.05,1.114-0.074,2.169-0.074,3.166
		c0,0.744,0.024,1.434,0.074,2.068c0.051,0.635,0.145,1.236,0.281,1.803h-1.652l-0.513-1.729h-0.116
		c-0.292,0.509-0.719,0.949-1.281,1.32c-0.562,0.371-1.319,0.557-2.27,0.557c-1.048,0-1.906-0.366-2.576-1.1
		s-1.004-1.744-1.004-3.034c0-0.841,0.14-1.544,0.422-2.112c0.281-0.566,0.678-1.025,1.192-1.378
		c0.514-0.352,1.124-0.601,1.832-0.747c0.708-0.147,1.497-0.221,2.37-0.221c0.193,0,0.388,0,0.582,0c0.193,0,0.396,0.011,0.61,0.029
		c0.058-0.604,0.087-1.143,0.087-1.612c0-1.114-0.165-1.896-0.493-2.346c-0.329-0.449-0.931-0.674-1.802-0.674
		c-0.543,0-1.134,0.083-1.772,0.249s-1.172,0.377-1.598,0.63L-363.524-343.853z M-357.221-336.757
		c-0.192-0.019-0.386-0.034-0.579-0.044c-0.193-0.01-0.386-0.015-0.579-0.015c-0.464,0-0.918,0.04-1.362,0.117
		c-0.444,0.078-0.84,0.216-1.188,0.411c-0.348,0.195-0.623,0.459-0.825,0.791c-0.203,0.333-0.305,0.753-0.305,1.261
		c0,0.782,0.188,1.389,0.565,1.818c0.376,0.43,0.863,0.645,1.463,0.645c0.811,0,1.438-0.195,1.883-0.586
		c0.443-0.391,0.753-0.821,0.927-1.29V-336.757z"/>
	<path fill="#707070" d="M-342.031-336.142l0.586,2.904h0.059l0.528-2.963l2.58-8.532h2.229l-5.014,14.983h-1.027l-5.102-14.983
		h2.404L-342.031-336.142z"/>
	<path fill="#707070" d="M-334.203-344.732h1.495l0.381,1.554h0.089c0.273-0.566,0.63-1.011,1.069-1.334
		c0.44-0.322,0.973-0.483,1.599-0.483c0.449,0,0.958,0.088,1.524,0.264l-0.41,2.141c-0.508-0.176-0.958-0.265-1.349-0.265
		c-0.626,0-1.134,0.182-1.525,0.543c-0.391,0.362-0.645,0.847-0.763,1.451v10.791h-2.11V-344.732z"/>
	<path fill="#707070" d="M-326.316-343.853c0.566-0.353,1.256-0.626,2.067-0.821c0.811-0.195,1.666-0.293,2.565-0.293
		c0.821,0,1.48,0.122,1.979,0.366c0.498,0.245,0.889,0.577,1.172,0.997c0.284,0.421,0.47,0.899,0.559,1.437
		c0.087,0.538,0.132,1.1,0.132,1.687c0,1.173-0.026,2.316-0.076,3.431c-0.05,1.115-0.075,2.169-0.075,3.166
		c0,0.744,0.025,1.434,0.075,2.068c0.05,0.635,0.144,1.236,0.28,1.803h-1.652l-0.513-1.729h-0.116
		c-0.292,0.509-0.718,0.949-1.281,1.32c-0.562,0.371-1.319,0.557-2.27,0.557c-1.048,0-1.906-0.366-2.575-1.1
		c-0.67-0.733-1.005-1.744-1.005-3.034c0-0.841,0.141-1.544,0.422-2.112c0.281-0.566,0.679-1.025,1.192-1.378
		c0.514-0.352,1.124-0.601,1.833-0.747c0.707-0.147,1.497-0.221,2.369-0.221c0.194,0,0.388,0,0.582,0
		c0.193,0,0.397,0.011,0.611,0.029c0.057-0.604,0.086-1.143,0.086-1.612c0-1.114-0.164-1.896-0.493-2.346
		c-0.329-0.449-0.931-0.674-1.802-0.674c-0.543,0-1.133,0.083-1.772,0.249c-0.639,0.166-1.172,0.377-1.597,0.63L-326.316-343.853z
		 M-320.013-336.757c-0.192-0.019-0.386-0.034-0.579-0.044c-0.193-0.01-0.386-0.015-0.579-0.015c-0.464,0-0.918,0.04-1.362,0.117
		c-0.444,0.078-0.84,0.216-1.188,0.411c-0.347,0.195-0.623,0.459-0.825,0.791c-0.203,0.333-0.305,0.753-0.305,1.261
		c0,0.782,0.188,1.389,0.565,1.818c0.376,0.43,0.864,0.645,1.463,0.645c0.811,0,1.438-0.195,1.883-0.586
		c0.445-0.391,0.753-0.821,0.927-1.29V-336.757z"/>
	<path fill="#707070" d="M-315.907-344.732h1.789v-2.902l2.111-0.675v3.577h3.166v1.906h-3.166v8.737
		c0,0.861,0.103,1.481,0.308,1.862c0.205,0.381,0.542,0.572,1.012,0.572c0.391,0,0.728-0.045,1.012-0.132
		c0.283-0.089,0.591-0.201,0.924-0.338l0.41,1.671c-0.43,0.216-0.905,0.386-1.423,0.514c-0.518,0.127-1.06,0.19-1.627,0.19
		c-0.978,0-1.676-0.318-2.097-0.953c-0.421-0.635-0.63-1.666-0.63-3.094v-9.03h-1.789V-344.732z"/>
	<path fill="#707070" d="M-306.524-343.853c0.567-0.353,1.257-0.626,2.068-0.821c0.811-0.195,1.666-0.293,2.564-0.293
		c0.822,0,1.481,0.122,1.98,0.366c0.498,0.245,0.889,0.577,1.172,0.997c0.283,0.421,0.47,0.899,0.558,1.437
		c0.087,0.538,0.132,1.1,0.132,1.687c0,1.173-0.025,2.316-0.076,3.431c-0.05,1.114-0.074,2.169-0.074,3.166
		c0,0.744,0.024,1.434,0.074,2.068c0.051,0.635,0.145,1.236,0.281,1.803h-1.652l-0.514-1.729h-0.115
		c-0.292,0.509-0.719,0.949-1.281,1.32c-0.562,0.371-1.319,0.557-2.27,0.557c-1.049,0-1.907-0.366-2.576-1.1
		c-0.67-0.733-1.004-1.744-1.004-3.034c0-0.841,0.14-1.544,0.422-2.112c0.281-0.566,0.678-1.025,1.191-1.378
		c0.515-0.352,1.125-0.601,1.833-0.747c0.708-0.147,1.497-0.221,2.37-0.221c0.193,0,0.387,0,0.582,0c0.193,0,0.396,0.011,0.61,0.029
		c0.058-0.604,0.087-1.143,0.087-1.612c0-1.114-0.165-1.896-0.494-2.346c-0.329-0.449-0.93-0.674-1.801-0.674
		c-0.543,0-1.134,0.083-1.772,0.249c-0.64,0.166-1.172,0.377-1.598,0.63L-306.524-343.853z M-300.22-336.757
		c-0.193-0.019-0.386-0.034-0.58-0.044c-0.192-0.01-0.386-0.015-0.578-0.015c-0.465,0-0.918,0.04-1.362,0.117
		c-0.444,0.078-0.841,0.216-1.188,0.411c-0.348,0.195-0.624,0.459-0.825,0.791c-0.204,0.333-0.305,0.753-0.305,1.261
		c0,0.782,0.188,1.389,0.565,1.818c0.376,0.43,0.863,0.645,1.462,0.645c0.812,0,1.439-0.195,1.884-0.586
		c0.443-0.391,0.753-0.821,0.927-1.29L-300.22-336.757L-300.22-336.757z"/>
</g>
<g>
	<path fill="#7DB902" d="M138.291,64.307c0,31.972-25.94,57.738-58.119,57.729c-31.923-0.006-57.853-25.881-57.853-57.728
		c-0.001-31.961,25.95-57.745,58.107-57.73C112.376,6.592,138.29,32.446,138.291,64.307z"/>
	<path fill="#FEFEFE" d="M98.677,105.141c-11.418-1.521-22.462-2.998-33.503-4.465c-3.481-0.465-6.958-0.979-10.451-1.338
		c-1.478-0.152-2.024-0.648-2.021-2.217c0.047-22.147,0.037-44.295,0.01-66.444c-0.002-1.217,0.222-1.762,1.64-1.912
		c15.259-1.623,30.509-3.303,45.751-5.075c1.873-0.218,2.347,0.411,2.522,2.079c1.382,13.043,2.816,26.079,4.244,39.116
		c0.737,6.729,1.432,13.471,2.291,20.186c0.194,1.503-0.068,2.074-1.583,2.041c-0.59-0.012-1.179,0.217-1.774,0.293
		c-5.617,0.721-5.617,0.719-5.617,6.277c-0.001,3.178-0.035,6.354,0.014,9.527C100.219,104.581,100.226,105.758,98.677,105.141z"/>
	<path fill="#7DB902" d="M59.395,64.827c0.003-8.677,0.044-17.351-0.031-26.022c-0.017-1.78,0.286-2.283,2.258-1.998
		c9.758,1.407,19.54,2.649,29.325,3.854c1.933,0.238,2.706,0.822,2.694,2.971c-0.097,17.262-0.076,34.525-0.017,51.788
		c0.007,1.886-0.259,2.467-2.407,2.147c-9.669-1.432-19.366-2.664-29.065-3.862c-2.023-0.25-2.878-0.787-2.829-3.113
		C59.5,82.006,59.393,73.415,59.395,64.827z"/>
	<path fill="#FCFCF9" d="M84.732,62.152c2.008,0.021,3.602,1.623,3.541,3.563c-0.059,1.945-1.735,3.492-3.745,3.361
		c-2.113-0.139-3.257-1.384-3.377-3.439C81.038,63.67,82.705,62.131,84.732,62.152z"/>
</g>
<g>
	<path fill="#C64E4E" d="M155.508,95.648c0.583-6.485,0.982-11.796,1.197-15.927s0.491-11.184,0.829-21.159
		c0.337-9.975,0.506-16.829,0.506-20.563c0-1.132-0.016-2.8-0.046-5.003c3.855,0.062,7.052,0.092,9.591,0.092
		c2.57,0,5.736-0.046,9.499-0.138c3.763-0.092,6.868-0.138,9.316-0.138c3.426,0,6.003,0.146,7.732,0.437s3.266,0.727,4.612,1.308
		c1.346,0.582,2.479,1.293,3.396,2.134c0.918,0.843,1.706,1.836,2.363,2.984c0.658,1.146,1.148,2.387,1.469,3.717
		c0.322,1.332,0.482,2.686,0.482,4.063c0,1.714-0.207,3.344-0.619,4.889c-0.414,1.545-1.01,2.938-1.791,4.176
		c-0.78,1.24-1.69,2.295-2.73,3.168c-1.041,0.871-2.035,1.553-2.983,2.042c-0.949,0.49-2.219,1.01-3.81,1.561
		c1.438,0.307,2.585,0.604,3.442,0.896c0.856,0.291,1.774,0.733,2.754,1.33c0.979,0.598,1.905,1.362,2.777,2.295
		c0.873,0.935,1.568,1.921,2.088,2.961c0.52,1.041,0.925,2.196,1.216,3.465c0.291,1.271,0.437,2.595,0.437,3.972
		c0,2.938-0.636,5.631-1.905,8.078c-1.27,2.447-3.021,4.383-5.255,5.807c-2.234,1.422-4.735,2.371-7.504,2.846
		c-2.77,0.475-8.652,0.711-17.648,0.711l-11.107-0.046L155.508,95.648z M169.413,86.698h10.419c2.111,0,3.756-0.084,4.935-0.253
		c1.177-0.169,2.302-0.468,3.374-0.897c1.071-0.428,1.913-0.889,2.525-1.379c0.612-0.49,1.155-1.119,1.629-1.888
		c0.474-0.767,0.849-1.633,1.125-2.6c0.275-0.966,0.413-1.972,0.413-3.015c0-1.41-0.245-2.651-0.735-3.727
		c-0.49-1.072-1.217-2.001-2.181-2.784c-0.964-0.78-2.089-1.35-3.374-1.702c-1.285-0.352-3.245-0.529-5.876-0.529h-11.57
		L169.413,86.698z M170.535,58.976h7.369c3.143,0,5.255-0.076,6.338-0.229c1.083-0.152,2.22-0.451,3.41-0.895
		c1.19-0.443,2.197-1.132,3.021-2.066c0.824-0.933,1.427-1.957,1.808-3.074c0.381-1.117,0.572-2.257,0.572-3.42
		c0-1.132-0.207-2.203-0.618-3.213c-0.413-1.01-1.046-1.843-1.901-2.502c-0.854-0.657-1.885-1.131-3.092-1.422
		c-1.206-0.291-2.969-0.437-5.29-0.437h-10.993L170.535,58.976z"/>
	<path fill="#C64E4E" d="M219.582,59.205c0.428-2.203,0.695-3.748,0.804-4.636c0.106-0.887,0.298-2.233,0.573-4.039
		c4.161-0.979,7.833-1.667,11.016-2.065c3.182-0.397,6.257-0.597,9.226-0.597c3.365,0,6.456,0.39,9.271,1.171
		c2.814,0.779,5.018,2.027,6.609,3.74c1.591,1.714,2.387,4.177,2.387,7.39c0,1.744-0.243,6.189-0.729,13.333
		c-0.486,7.146-0.775,14.526-0.866,22.146c-2.328-0.062-4.472-0.092-6.431-0.092c-1.869,0-4.059,0.03-6.569,0.092
		c0.402-3.702,0.728-7.985,0.975-12.853l0.604-11.428c-1.164,0.766-2.052,1.301-2.664,1.605c-0.612,0.307-1.302,0.59-2.067,0.85
		c-0.765,0.26-2.113,0.658-4.043,1.193c-1.929,0.535-3.476,1.002-4.639,1.398c-1.164,0.398-2.214,0.85-3.147,1.354
		c-0.935,0.504-1.724,1.071-2.366,1.696c-0.643,0.629-1.109,1.285-1.401,1.976c-0.291,0.688-0.436,1.431-0.436,2.226
		c0,1.285,0.374,2.396,1.125,3.328c0.749,0.935,1.689,1.584,2.822,1.95c1.132,0.367,2.463,0.552,3.993,0.552
		c0.979,0,2.012-0.076,3.099-0.229c1.085-0.152,2.547-0.535,4.383-1.147c-0.643,1.744-1.393,4.346-2.249,7.803
		c-2.173,0.367-3.901,0.598-5.187,0.688c-1.286,0.091-2.479,0.138-3.58,0.138c-3.854,0-7.021-0.521-9.501-1.561
		c-2.479-1.04-4.308-2.691-5.485-4.957c-1.178-2.264-1.767-4.544-1.767-6.839c0-1.315,0.229-2.616,0.688-3.901
		c0.459-1.285,1.133-2.463,2.021-3.533c0.889-1.07,2.036-2.104,3.445-3.1c1.408-0.993,3.444-1.957,6.107-2.891
		c2.664-0.934,6.186-1.874,10.563-2.823c1.163-0.244,2.373-0.543,3.628-0.896c1.255-0.352,2.259-0.695,3.009-1.033
		c0.75-0.336,1.4-0.771,1.951-1.307c0.551-0.536,0.957-1.094,1.217-1.676c0.261-0.581,0.392-1.178,0.392-1.79
		c0-1.193-0.392-2.203-1.172-3.029c-0.78-0.826-1.791-1.399-3.031-1.722c-1.24-0.32-2.611-0.481-4.111-0.481
		C232.474,55.212,226.319,56.543,219.582,59.205z"/>
	<path fill="#C64E4E" d="M297.977,86.056c-0.367,1.684-0.949,4.805-1.744,9.362c-2.57,0.582-4.59,0.949-6.059,1.103
		c-1.469,0.151-2.846,0.229-4.131,0.229c-2.265,0-4.291-0.215-6.082-0.644c-1.789-0.429-3.267-1.187-4.429-2.271
		c-1.163-1.086-1.95-2.356-2.364-3.812c-0.412-1.452-0.619-2.96-0.619-4.521c0-0.397,0.015-0.934,0.046-1.606
		c0.03-0.673,0.152-2.846,0.366-6.519l1.053-19.093h-6.605c0.152-1.836,0.29-4.788,0.412-8.858h6.914
		c0.182-1.774,0.364-4.788,0.547-9.042l5.426-1.056c1.134-0.214,3.326-0.719,6.575-1.515c-0.22,4.131-0.345,8.002-0.377,11.612
		h11.668c-0.215,4.131-0.321,7.084-0.321,8.858h-11.705c-0.644,12.454-0.965,19.66-0.965,21.618c0,1.896,0.206,3.366,0.619,4.406
		c0.413,1.041,1.079,1.79,1.997,2.249s1.896,0.688,2.938,0.688c0.765,0,1.568-0.062,2.41-0.185
		C294.388,86.943,295.864,86.606,297.977,86.056z"/>
	<path fill="#C64E4E" d="M307.799,59.205c0.428-2.203,0.695-3.748,0.804-4.636c0.106-0.887,0.298-2.233,0.573-4.039
		c4.161-0.979,7.833-1.667,11.016-2.065c3.183-0.397,6.258-0.597,9.227-0.597c3.365,0,6.456,0.39,9.271,1.171
		c2.813,0.779,5.018,2.027,6.608,3.74c1.591,1.714,2.388,4.177,2.388,7.39c0,1.744-0.244,6.189-0.729,13.333
		c-0.486,7.146-0.774,14.526-0.866,22.146c-2.328-0.062-4.472-0.092-6.431-0.092c-1.869,0-4.06,0.03-6.569,0.092
		c0.402-3.702,0.729-7.985,0.975-12.853l0.604-11.428c-1.164,0.766-2.052,1.301-2.664,1.605c-0.612,0.307-1.302,0.59-2.067,0.85
		c-0.765,0.26-2.112,0.658-4.043,1.193c-1.929,0.535-3.476,1.002-4.639,1.398c-1.164,0.398-2.214,0.85-3.146,1.354
		c-0.936,0.504-1.725,1.071-2.366,1.696c-0.644,0.629-1.109,1.285-1.401,1.976c-0.291,0.688-0.436,1.431-0.436,2.226
		c0,1.285,0.374,2.396,1.125,3.328c0.749,0.935,1.688,1.584,2.822,1.95c1.131,0.367,2.463,0.552,3.992,0.552
		c0.979,0,2.012-0.076,3.1-0.229c1.085-0.152,2.547-0.535,4.383-1.147c-0.643,1.744-1.393,4.346-2.249,7.803
		c-2.173,0.367-3.901,0.598-5.187,0.688c-1.287,0.091-2.479,0.138-3.58,0.138c-3.855,0-7.022-0.521-9.501-1.561
		s-4.308-2.691-5.485-4.957c-1.178-2.264-1.767-4.544-1.767-6.839c0-1.315,0.229-2.616,0.688-3.901s1.133-2.463,2.021-3.533
		c0.889-1.07,2.036-2.104,3.445-3.1c1.408-0.993,3.444-1.957,6.107-2.891c2.665-0.934,6.186-1.874,10.563-2.823
		c1.163-0.244,2.373-0.543,3.628-0.896c1.255-0.352,2.259-0.695,3.009-1.033c0.75-0.336,1.4-0.771,1.951-1.307
		c0.551-0.536,0.957-1.094,1.217-1.676c0.262-0.581,0.393-1.178,0.393-1.79c0-1.193-0.393-2.203-1.172-3.029
		c-0.78-0.826-1.791-1.399-3.031-1.722c-1.24-0.32-2.611-0.481-4.111-0.481C320.689,55.212,314.536,56.543,307.799,59.205z"/>
	<path fill="#C64E4E" d="M375.605,95.648l-1.744-5.783c-0.245-0.765-1.256-3.687-3.032-8.767l-8.91-25.336l-8.176-22.766
		c3.147,0.062,5.763,0.092,7.842,0.092c1.284,0,3.531-0.03,6.742-0.092l1.427,5.095c0.307,1.041,0.752,2.449,1.335,4.224
		l11.144,33.645c0.676,2.174,1.551,5.035,2.625,8.584l2.476-5.6c0.61-1.377,1.879-4.07,3.806-8.079l14.439-30.202
		c0.427-0.888,0.854-1.829,1.282-2.823c0.428-0.994,1.101-2.608,2.018-4.843c3.333,0.062,5.871,0.092,7.614,0.092
		c1.039,0,3.438-0.03,7.201-0.092l-3.945,7.344l-25.091,49.57l-2.661,5.737c-3.979-0.062-6.641-0.092-7.987-0.092
		C382.814,95.557,380.014,95.588,375.605,95.648z"/>
	<path fill="#C64E4E" d="M424.335,95.648l1.329-21.802l0.366-12.668c0.061-2.601,0.092-5.217,0.092-7.849
		c0-0.459-0.031-1.912-0.092-4.36c2.846,0.062,4.941,0.092,6.29,0.092c1.561,0,3.626-0.03,6.196-0.092l-0.229,6.472
		c1.162-1.652,2.157-2.884,2.983-3.695c0.825-0.81,1.75-1.506,2.776-2.088c1.024-0.581,2.164-1.024,3.419-1.331
		c1.254-0.306,2.539-0.459,3.855-0.459c1.224,0,2.479,0.153,3.764,0.459c0,2.846,0.138,6.457,0.413,10.832
		c-1.806-0.489-3.443-0.734-4.912-0.734c-1.773,0-3.343,0.269-4.705,0.804s-2.586,1.347-3.673,2.432
		c-1.086,1.087-1.98,2.426-2.685,4.017c-0.582,1.285-1.011,2.953-1.285,5.003c-0.238,1.592-0.439,4.313-0.604,8.17
		c-0.164,3.854-0.246,7.649-0.246,11.383c0,1.438,0.047,3.244,0.139,5.416c-2.329-0.062-4.459-0.092-6.391-0.092
		C429.237,95.557,426.97,95.588,424.335,95.648z"/>
	<path fill="#C64E4E" d="M464.404,59.205c0.428-2.203,0.694-3.748,0.804-4.636c0.106-0.887,0.298-2.233,0.573-4.039
		c4.161-0.979,7.833-1.667,11.016-2.065c3.182-0.397,6.257-0.597,9.227-0.597c3.364,0,6.455,0.39,9.271,1.171
		c2.814,0.779,5.019,2.027,6.609,3.74c1.591,1.714,2.387,4.177,2.387,7.39c0,1.744-0.243,6.189-0.729,13.333
		c-0.485,7.146-0.774,14.526-0.865,22.146c-2.328-0.062-4.473-0.092-6.432-0.092c-1.869,0-4.059,0.03-6.568,0.092
		c0.401-3.702,0.728-7.985,0.975-12.853l0.604-11.428c-1.164,0.766-2.053,1.301-2.664,1.605c-0.612,0.307-1.303,0.59-2.067,0.85
		s-2.113,0.658-4.043,1.193c-1.929,0.535-3.476,1.002-4.639,1.398c-1.164,0.398-2.215,0.85-3.147,1.354
		c-0.935,0.504-1.724,1.071-2.366,1.696c-0.643,0.629-1.108,1.285-1.4,1.976c-0.291,0.688-0.437,1.431-0.437,2.226
		c0,1.285,0.374,2.396,1.125,3.328c0.749,0.935,1.689,1.584,2.822,1.95c1.132,0.367,2.463,0.552,3.993,0.552
		c0.979,0,2.012-0.076,3.099-0.229c1.085-0.152,2.547-0.535,4.383-1.147c-0.643,1.744-1.393,4.346-2.249,7.803
		c-2.173,0.367-3.9,0.598-5.187,0.688s-2.479,0.138-3.58,0.138c-3.854,0-7.022-0.521-9.501-1.561s-4.308-2.691-5.485-4.957
		c-1.178-2.264-1.767-4.544-1.767-6.839c0-1.315,0.229-2.616,0.688-3.901s1.134-2.463,2.021-3.533c0.889-1.07,2.036-2.104,3.445-3.1
		c1.407-0.993,3.443-1.957,6.106-2.891c2.664-0.934,6.187-1.874,10.563-2.823c1.163-0.244,2.373-0.543,3.628-0.896
		c1.255-0.352,2.259-0.695,3.009-1.033c0.75-0.336,1.4-0.771,1.951-1.307c0.551-0.536,0.957-1.094,1.217-1.676
		c0.261-0.581,0.392-1.178,0.392-1.79c0-1.193-0.392-2.203-1.172-3.029c-0.779-0.826-1.791-1.399-3.03-1.722
		c-1.24-0.32-2.611-0.481-4.111-0.481C477.296,55.212,471.142,56.543,464.404,59.205z"/>
	<path fill="#C64E4E" d="M542.799,86.056c-0.367,1.684-0.949,4.805-1.744,9.362c-2.569,0.582-4.59,0.949-6.059,1.103
		c-1.469,0.151-2.846,0.229-4.131,0.229c-2.266,0-4.291-0.215-6.082-0.644c-1.789-0.429-3.268-1.187-4.43-2.271
		c-1.162-1.086-1.949-2.356-2.363-3.812c-0.412-1.452-0.619-2.96-0.619-4.521c0-0.397,0.015-0.934,0.046-1.606
		c0.03-0.673,0.152-2.846,0.366-6.519l1.053-19.093h-6.604c0.151-1.836,0.29-4.788,0.411-8.858h6.914
		c0.183-1.774,0.364-4.788,0.547-9.042l5.427-1.056c1.134-0.214,3.325-0.719,6.575-1.515c-0.221,4.131-0.346,8.002-0.377,11.612
		h11.668c-0.216,4.131-0.321,7.084-0.321,8.858H531.37c-0.644,12.454-0.965,19.66-0.965,21.618c0,1.896,0.206,3.366,0.619,4.406
		c0.413,1.041,1.079,1.79,1.997,2.249s1.896,0.688,2.938,0.688c0.766,0,1.568-0.062,2.41-0.185
		C539.21,86.943,540.688,86.606,542.799,86.056z"/>
	<path fill="#C64E4E" d="M552.621,59.205c0.428-2.203,0.695-3.748,0.804-4.636c0.106-0.887,0.298-2.233,0.573-4.039
		c4.161-0.979,7.833-1.667,11.016-2.065c3.183-0.397,6.258-0.597,9.227-0.597c3.365,0,6.456,0.39,9.271,1.171
		c2.814,0.779,5.019,2.027,6.609,3.74c1.591,1.714,2.387,4.177,2.387,7.39c0,1.744-0.243,6.189-0.729,13.333
		c-0.486,7.146-0.775,14.526-0.866,22.146c-2.328-0.062-4.473-0.092-6.432-0.092c-1.868,0-4.059,0.03-6.568,0.092
		c0.402-3.702,0.728-7.985,0.975-12.853l0.604-11.428c-1.164,0.766-2.052,1.301-2.664,1.605c-0.612,0.307-1.302,0.59-2.067,0.85
		c-0.765,0.26-2.113,0.658-4.043,1.193c-1.929,0.535-3.476,1.002-4.639,1.398c-1.164,0.398-2.214,0.85-3.147,1.354
		c-0.935,0.504-1.724,1.071-2.366,1.696c-0.643,0.629-1.108,1.285-1.4,1.976c-0.291,0.688-0.436,1.431-0.436,2.226
		c0,1.285,0.373,2.396,1.125,3.328c0.748,0.935,1.688,1.584,2.821,1.95c1.132,0.367,2.463,0.552,3.993,0.552
		c0.979,0,2.012-0.076,3.099-0.229c1.085-0.152,2.548-0.535,4.384-1.147c-0.644,1.744-1.394,4.346-2.25,7.803
		c-2.172,0.367-3.9,0.598-5.187,0.688s-2.479,0.138-3.58,0.138c-3.854,0-7.021-0.521-9.501-1.561
		c-2.479-1.04-4.308-2.691-5.484-4.957c-1.179-2.264-1.768-4.544-1.768-6.839c0-1.315,0.229-2.616,0.688-3.901
		s1.134-2.463,2.021-3.533c0.889-1.07,2.036-2.104,3.445-3.1c1.408-0.993,3.443-1.957,6.106-2.891
		c2.664-0.934,6.187-1.874,10.563-2.823c1.163-0.244,2.373-0.543,3.628-0.896c1.255-0.352,2.259-0.695,3.009-1.033
		c0.75-0.336,1.4-0.771,1.951-1.307c0.551-0.536,0.957-1.094,1.217-1.676c0.261-0.581,0.393-1.178,0.393-1.79
		c0-1.193-0.393-2.203-1.173-3.029c-0.779-0.826-1.791-1.399-3.03-1.722c-1.24-0.32-2.611-0.481-4.111-0.481
		C565.513,55.212,559.357,56.543,552.621,59.205z"/>
</g>
</svg>
